<svg xmlns="http://www.w3.org/2000/svg" viewBox="0 0 128.61 130.48"><defs><style>.cls-1{fill:none;stroke:#231f20;stroke-miterlimit:10;}</style></defs><g id="Layer_2" data-name="Layer 2"><g id="Layer_1-2" data-name="Layer 1"><polygon class="cls-1" points="7.31 55.28 14.6 68.57 26.73 84.67 40.4 99.1 58.79 113.66 78.72 125.16 97.63 129.97 107.85 128.48 115.89 123.24 122.22 114.3 128.06 100.76 125.99 96.29 118.45 90.73 100.31 83.9 83.96 83.13 77.57 86.2 74.64 95.27 67.22 88.24 57.13 78.02 46.28 67.29 36.34 56.56 35.42 52.22 37.27 52.35 47.04 47.49 50.24 43.4 49.09 31.65 42.32 17.22 32.22 3.93 22.39 0.55 13.06 5.85 5.53 14.41 0.5 23.9 0.5 34.56 3.01 43.91 7.31 55.28"/></g></g></svg>