<?xml version="1.0" standalone="no"?>
<!DOCTYPE svg PUBLIC "-//W3C//DTD SVG 20010904//EN"
 "http://www.w3.org/TR/2001/REC-SVG-20010904/DTD/svg10.dtd">
<svg version="1.0" xmlns="http://www.w3.org/2000/svg"
 width="300.000000pt" height="330.000000pt" viewBox="0 0 300.000000 330.000000"
 preserveAspectRatio="xMidYMid meet">
<metadata>
Created by potrace 1.10, written by Peter Selinger 2001-2011
</metadata>
<g transform="translate(0.000000,330.000000) scale(0.100000,-0.100000)"
fill="#000000" stroke="none">
<path d="M1305 3290 c-70 -9 -108 -23 -150 -54 -16 -13 -47 -26 -68 -30 -26
-5 -62 -28 -117 -74 -43 -37 -91 -75 -106 -86 -14 -10 -32 -33 -40 -52 -13
-30 -41 -53 -86 -70 -10 -3 -18 -10 -18 -14 0 -4 -13 -13 -30 -20 -16 -7 -30
-18 -30 -24 1 -16 25 -46 38 -46 5 0 12 -7 16 -15 7 -18 -20 -20 -50 -2 -24
14 -98 77 -229 193 -106 95 -123 105 -238 137 -63 18 -89 21 -96 13 -5 -6 -28
-78 -51 -160 -30 -106 -42 -167 -42 -213 1 -72 10 -123 22 -123 5 0 11 -13 15
-29 8 -36 67 -136 103 -174 48 -52 164 -96 260 -100 6 0 12 -6 12 -14 0 -23
30 -14 62 17 36 37 44 38 22 5 -9 -14 -12 -25 -6 -25 6 0 14 5 17 10 3 6 10
10 14 10 4 0 -4 -24 -20 -54 -15 -30 -32 -87 -39 -127 -17 -102 -7 -322 19
-419 11 -41 32 -145 47 -230 22 -125 27 -182 25 -292 -1 -90 4 -162 14 -209 9
-45 11 -78 6 -88 -10 -18 -41 -161 -48 -221 -5 -39 10 -65 44 -74 16 -5 23 -2
28 14 7 23 25 27 25 5 0 -23 28 -18 55 10 l25 24 0 -40 c0 -45 -10 -68 -52
-119 -15 -19 -28 -45 -28 -57 0 -12 -5 -25 -10 -28 -5 -3 -10 -33 -10 -66 0
-49 -5 -67 -25 -93 -27 -35 -32 -61 -14 -71 7 -5 6 -12 -4 -23 -8 -10 -20 -33
-27 -54 -12 -32 -11 -40 4 -63 20 -31 53 -45 106 -45 39 0 39 0 42 43 l3 42
14 -42 c8 -24 18 -43 23 -43 22 0 88 42 113 72 26 30 27 35 19 93 -5 33 -7 87
-6 120 1 33 3 123 5 200 l2 140 42 75 c23 41 49 102 59 135 23 78 27 82 77 87
31 3 49 -1 70 -16 21 -16 44 -21 87 -21 l59 0 6 -35 c3 -19 15 -73 27 -118 25
-102 22 -269 -7 -340 -17 -41 -17 -45 0 -83 15 -33 16 -45 7 -77 -6 -20 -9
-47 -6 -58 3 -11 1 -36 -4 -55 -16 -61 39 -139 99 -139 21 0 30 7 37 28 l10
27 11 -27 c12 -33 22 -34 76 -9 56 26 80 54 66 80 -6 11 -11 49 -11 86 0 50
-6 77 -25 115 -19 37 -25 65 -25 112 0 46 -5 71 -20 93 -16 25 -20 47 -20 128
0 53 3 97 8 97 4 0 32 -9 62 -21 75 -29 213 -24 282 10 26 12 52 20 58 16 21
-13 235 -6 295 10 105 28 193 99 229 186 13 31 19 35 57 37 32 2 45 -2 56 -18
43 -61 187 35 243 162 39 89 53 193 53 388 0 256 -24 369 -93 436 -16 16 -30
35 -30 43 0 29 -42 79 -84 101 -51 26 -115 86 -81 77 57 -17 77 -18 112 -6 21
6 47 21 58 33 11 12 60 48 108 81 100 68 177 144 177 176 0 11 -8 33 -18 47
-10 15 -24 40 -32 56 -20 40 -110 120 -165 146 -60 29 -110 23 -224 -29 -83
-38 -171 -61 -171 -45 0 4 7 15 16 25 19 21 11 55 -15 64 -10 3 -23 17 -29 30
-6 14 -18 25 -26 25 -8 0 -17 15 -21 38 -11 62 -64 177 -93 204 -15 14 -52 38
-82 53 -30 15 -59 34 -65 41 -14 19 -85 42 -154 50 l-59 6 3 54 c3 51 2 54
-19 48 -12 -3 -76 1 -142 10 -155 19 -314 26 -389 16z m377 -37 l146 -16 -3
-49 -4 -48 35 0 c61 0 176 -30 170 -45 -3 -9 13 -19 47 -30 111 -36 170 -104
203 -236 13 -53 23 -71 60 -105 42 -40 55 -64 34 -64 -5 0 -10 -7 -10 -15 0
-10 -8 -6 -25 10 -31 32 -63 33 -70 3 -11 -54 -7 -87 19 -140 19 -41 28 -76
29 -118 l2 -60 120 -121 c66 -66 136 -129 155 -139 43 -22 75 -57 85 -90 4
-14 20 -38 35 -55 15 -16 35 -45 44 -62 14 -29 15 -33 1 -33 -17 0 -76 -111
-99 -189 -19 -64 -20 -120 -5 -208 8 -44 15 -63 26 -63 10 0 13 6 9 16 -18 47
-27 156 -17 209 11 60 71 204 84 205 5 0 7 -24 5 -52 -4 -65 15 -80 23 -18 7
52 6 54 19 -105 11 -145 -2 -341 -29 -438 -23 -85 -79 -167 -139 -207 -54 -36
-79 -38 -91 -7 l-9 22 -138 -13 c-78 -7 -307 -15 -519 -16 -209 -2 -426 -7
-482 -11 -82 -6 -109 -5 -141 8 -31 12 -63 15 -148 11 -129 -6 -149 1 -182 66
-29 59 -29 128 3 227 13 43 33 138 44 211 33 216 67 315 150 436 46 67 68 118
75 173 4 29 13 70 21 92 8 22 10 43 5 46 -5 3 -11 2 -13 -2 -12 -20 -37 -120
-37 -149 0 -21 -23 -69 -72 -150 -78 -130 -124 -247 -134 -343 -4 -33 -10 -61
-13 -61 -14 0 -74 241 -87 353 -19 159 -38 260 -69 377 -35 125 -45 307 -21
363 8 21 20 36 25 32 25 -15 131 65 131 99 0 32 -55 104 -84 112 -32 8 -62
-10 -82 -47 -18 -36 -32 -29 -39 20 -4 35 12 56 70 87 21 11 39 31 48 55 10
24 27 43 48 55 19 9 36 20 39 24 3 4 34 32 69 63 54 49 69 57 103 57 23 0 41
5 44 14 8 22 97 65 155 75 65 12 183 7 381 -16z m-1483 -143 c95 -27 121 -41
189 -103 77 -71 228 -198 260 -220 17 -11 41 -17 64 -15 32 3 37 1 33 -14 -3
-9 1 -33 9 -53 11 -25 13 -42 6 -55 -36 -66 -27 -256 19 -420 37 -135 38 -139
56 -304 16 -150 29 -211 77 -355 35 -106 34 -162 -4 -267 -31 -88 -36 -199
-10 -257 11 -25 33 -53 49 -63 15 -10 30 -19 32 -21 2 -1 -1 -8 -6 -15 -6 -7
-18 -40 -28 -73 -15 -53 -36 -99 -85 -184 -11 -19 -16 -62 -17 -161 -1 -74 -5
-162 -8 -196 -4 -33 -2 -87 4 -119 8 -44 8 -64 -2 -83 -12 -27 -70 -72 -92
-72 -6 0 -19 25 -29 55 -9 30 -21 55 -26 55 -5 0 -12 -27 -16 -61 l-7 -61 -40
6 c-23 4 -47 12 -54 18 -19 15 -16 53 8 99 16 32 18 43 8 55 -10 12 -7 20 14
42 20 22 26 40 30 92 7 94 15 120 56 169 31 40 36 53 39 111 2 36 -1 113 -7
171 -7 70 -7 118 -1 141 8 29 5 57 -19 150 -17 64 -35 171 -42 244 -11 121 -7
281 7 318 4 10 1 16 -9 16 -36 0 -34 -333 3 -504 15 -68 17 -93 8 -109 -16
-30 -13 -136 7 -255 16 -95 16 -104 1 -127 -19 -29 -36 -25 -36 10 0 39 -19
39 -37 0 -10 -22 -23 -35 -33 -33 -21 4 -24 52 -6 90 9 17 16 48 16 69 0 21 7
59 15 84 14 40 14 53 1 127 -10 52 -15 137 -14 228 1 149 -20 295 -73 505 -27
106 -35 274 -20 380 13 82 36 141 97 242 33 56 21 78 -17 32 l-28 -34 6 38 c7
44 -8 49 -27 10 -11 -24 -14 -25 -18 -9 -3 16 -9 13 -42 -19 -34 -33 -38 -35
-33 -15 l6 24 -34 -21 c-31 -18 -39 -19 -85 -8 -103 24 -174 86 -233 203 l-22
42 81 37 c74 33 99 53 67 53 -8 0 -47 -11 -87 -25 -40 -14 -76 -22 -79 -19 -3
3 -7 37 -9 75 -4 59 2 94 38 225 24 84 46 154 49 154 4 0 39 -9 80 -20z m666
-287 c15 -16 32 -39 37 -53 8 -21 5 -28 -19 -48 -15 -13 -40 -30 -55 -37 -25
-14 -28 -13 -42 7 -35 50 -6 151 45 157 4 1 19 -11 34 -26z m1931 -159 c62
-41 103 -85 140 -147 19 -32 34 -62 34 -66 0 -21 -82 -99 -159 -150 -73 -50
-89 -57 -109 -48 -27 12 -39 3 -22 -18 8 -10 9 -15 1 -15 -6 0 -11 -6 -11 -14
0 -25 -55 -36 -118 -24 -52 10 -64 17 -138 90 -70 69 -80 83 -76 108 2 16 -1
51 -8 78 -10 44 -9 53 9 83 12 19 21 41 21 49 0 11 13 15 53 16 40 0 75 11
142 42 113 52 180 57 241 16z m-461 -45 c7 -22 -12 -79 -26 -79 -22 0 -41 95
-23 113 11 10 42 -11 49 -34z m-1885 -264 c-7 -9 -15 -13 -19 -10 -3 3 1 10 9
15 21 14 24 12 10 -5z m252 -1337 c3 -18 1 -46 -3 -62 -5 -17 -7 -55 -4 -85 3
-42 2 -48 -4 -26 -12 41 -13 205 -2 205 5 0 11 -15 13 -32z m527 -59 c24 -9
29 -14 19 -20 -19 -12 -60 -11 -99 3 l-34 13 40 6 c22 3 40 7 41 8 1 0 16 -4
33 -10z m1171 3 c0 -19 -60 -101 -88 -121 -17 -12 -57 -34 -89 -49 -55 -25
-67 -27 -213 -28 -125 -1 -163 -5 -195 -19 -93 -41 -241 -27 -343 32 -75 44
-210 179 -161 161 8 -3 43 -1 79 4 36 5 216 9 400 9 184 0 380 4 435 8 144 11
175 12 175 3z m-981 -177 l41 -28 0 -108 c0 -90 4 -116 20 -146 13 -25 20 -57
20 -96 0 -41 7 -71 24 -105 18 -35 25 -69 28 -135 5 -96 1 -105 -58 -125 -31
-10 -32 -9 -43 30 -14 46 -30 45 -46 -2 -13 -39 -26 -46 -54 -30 -35 18 -54
67 -44 109 6 20 7 45 3 55 -3 11 -2 37 4 58 8 30 7 48 -5 81 -14 38 -14 46 -1
77 10 22 17 80 20 155 4 106 1 133 -22 224 -14 57 -26 108 -26 113 0 5 22 -15
49 -44 27 -30 68 -67 90 -83z"/>
<path d="M1400 2102 c-106 -47 -117 -159 -32 -332 69 -142 169 -210 308 -210
114 0 154 31 154 120 0 47 -50 126 -99 154 -18 10 -83 36 -145 56 l-111 37 -5
75 c-7 95 -25 120 -70 100z m46 -102 c3 -44 12 -84 19 -90 7 -6 48 -21 92 -34
138 -41 181 -64 216 -115 39 -57 45 -130 12 -155 -51 -38 -190 -29 -271 19
-51 30 -91 81 -133 169 -54 116 -60 206 -17 255 22 24 56 42 68 35 4 -3 10
-40 14 -84z"/>
<path d="M2726 177 c-10 -25 -19 -36 -27 -31 -8 4 -9 3 -5 -4 4 -8 0 -12 -11
-12 -17 -1 -17 -1 1 -15 10 -7 15 -18 11 -24 -3 -7 2 -11 14 -11 11 0 22 9 26
20 9 28 55 28 55 0 0 -14 7 -20 21 -20 16 0 19 4 14 21 -4 12 -3 19 1 16 11
-6 35 18 27 27 -4 3 -15 6 -25 6 -12 0 -24 12 -32 32 -20 47 -50 45 -70 -5z
m59 -27 c8 0 16 -3 18 -7 3 -5 -16 -8 -41 -9 -26 0 -40 1 -31 3 10 2 20 14 24
26 6 19 8 19 12 5 2 -10 11 -18 18 -18z"/>
<path d="M2745 69 c-4 -5 -17 -7 -30 -5 -14 3 -26 -1 -29 -9 -3 -10 8 -13 45
-12 32 0 49 5 49 13 0 15 -27 26 -35 13z"/>
<path d="M2585 61 c-13 -12 -1 -17 42 -17 26 1 48 6 50 13 3 8 -10 11 -42 10
-25 -1 -48 -3 -50 -6z"/>
<path d="M2797 63 c-14 -13 -6 -20 23 -21 17 0 30 5 30 11 0 7 4 6 10 -3 8
-13 10 -12 10 3 0 19 -8 21 -30 7 -9 -5 -19 -5 -26 0 -6 6 -14 7 -17 3z"/>
<path d="M2887 63 c-10 -9 -9 -23 1 -23 5 0 9 7 9 15 0 17 -1 18 -10 8z"/>
<path d="M2910 55 c0 -9 11 -13 30 -13 37 1 34 22 -3 25 -17 1 -27 -3 -27 -12z"/>
</g>
</svg>
