<?xml version="1.0" standalone="no"?>
<!DOCTYPE svg PUBLIC "-//W3C//DTD SVG 20010904//EN"
 "http://www.w3.org/TR/2001/REC-SVG-20010904/DTD/svg10.dtd">
<svg version="1.0" xmlns="http://www.w3.org/2000/svg"
 width="1200.000000pt" height="1200.000000pt" viewBox="0 0 1200.000000 1200.000000"
 preserveAspectRatio="xMidYMid meet">

<g transform="translate(0.000000,1200.000000) scale(0.100000,-0.100000)"
fill="#000000" stroke="none">
<path d="M3330 10070 c-19 -5 -78 -16 -130 -25 -52 -9 -99 -21 -105 -25 -9 -7
-89 -32 -152 -47 -13 -3 -23 -9 -23 -14 0 -5 -6 -9 -13 -9 -23 0 -222 -106
-287 -153 -36 -26 -76 -55 -90 -64 -63 -46 -300 -296 -331 -350 -18 -32 -41
-67 -51 -78 -57 -61 -193 -393 -217 -530 -31 -175 -33 -207 -27 -460 11 -493
24 -639 86 -948 6 -27 10 -66 10 -88 0 -35 34 -185 101 -454 12 -44 29 -114
39 -155 18 -76 46 -169 80 -270 11 -30 24 -75 30 -100 6 -25 20 -67 31 -95 12
-27 32 -76 45 -107 13 -32 35 -84 49 -115 13 -32 27 -69 30 -83 4 -14 24 -62
46 -107 21 -44 39 -85 39 -90 0 -10 206 -421 219 -436 5 -7 22 -37 38 -67 16
-30 41 -74 56 -97 15 -24 27 -45 27 -47 0 -3 14 -25 30 -49 17 -25 30 -48 30
-51 0 -4 5 -12 10 -19 6 -7 25 -34 43 -62 17 -27 37 -56 44 -63 7 -7 13 -17
13 -22 0 -5 6 -15 13 -22 24 -26 77 -102 77 -112 0 -6 13 -24 28 -41 15 -16
53 -64 84 -105 31 -41 64 -85 74 -96 11 -12 30 -36 44 -54 14 -18 30 -38 35
-44 6 -6 39 -49 75 -96 35 -47 89 -110 120 -140 30 -30 68 -73 84 -94 38 -51
420 -433 471 -472 22 -16 61 -50 88 -76 26 -26 75 -66 109 -89 34 -23 71 -51
83 -63 29 -27 51 -45 95 -76 19 -13 40 -28 45 -33 17 -14 136 -98 230 -164
163 -114 229 -157 280 -184 44 -23 111 -65 140 -86 6 -5 53 -30 105 -57 52
-27 102 -55 111 -62 8 -8 23 -14 32 -14 9 0 17 -4 17 -10 0 -5 9 -10 19 -10
11 0 21 -3 23 -7 4 -11 128 -73 144 -73 7 0 14 -3 16 -8 3 -8 115 -63 168 -83
19 -7 50 -21 68 -31 18 -10 37 -18 42 -18 6 0 29 -9 53 -19 23 -11 71 -29 107
-41 36 -12 69 -26 75 -31 5 -5 15 -9 22 -9 8 0 32 -9 53 -19 22 -10 63 -24 92
-31 29 -7 55 -16 58 -20 3 -3 32 -14 65 -24 33 -9 94 -28 136 -41 42 -13 111
-31 155 -40 43 -9 93 -23 109 -30 43 -20 147 -45 185 -45 17 0 85 -14 150 -30
65 -17 131 -30 147 -30 15 0 60 -7 98 -15 39 -9 108 -20 155 -26 47 -5 110
-14 140 -20 149 -27 824 -49 945 -30 107 17 253 47 320 65 54 15 302 131 315
147 3 3 27 18 54 32 26 14 60 36 75 49 14 13 44 36 65 52 51 38 234 221 272
272 16 21 41 53 56 69 16 17 28 38 28 47 0 9 4 18 8 20 24 10 134 224 171 333
65 193 85 327 85 565 0 215 -12 312 -54 430 -16 47 -30 86 -30 87 0 11 -71 34
-145 47 -149 27 -196 38 -260 56 -33 10 -105 27 -160 38 -126 26 -169 36 -275
61 -47 11 -132 30 -190 42 -58 12 -134 30 -170 40 -36 11 -121 31 -190 45 -69
14 -143 31 -166 39 -22 7 -110 28 -195 46 -183 38 -370 79 -494 109 -78 18
-182 42 -403 90 -69 16 -95 1 -171 -100 -14 -19 -36 -47 -49 -61 -13 -15 -39
-51 -57 -80 -19 -30 -38 -58 -42 -64 -12 -15 -113 -219 -113 -228 0 -4 -9 -26
-20 -50 -21 -46 -70 -232 -70 -267 0 -18 -4 -20 -22 -14 -13 3 -27 10 -33 14
-5 4 -34 13 -63 20 -28 6 -55 16 -58 21 -3 5 -13 9 -22 9 -9 0 -44 14 -77 30
-33 17 -64 30 -70 30 -5 0 -37 14 -70 30 -33 17 -65 30 -71 30 -7 0 -14 3 -16
8 -4 10 -128 72 -144 72 -8 0 -14 3 -14 8 0 8 -48 32 -66 32 -7 0 -14 3 -16 8
-6 13 -67 52 -82 52 -8 0 -16 3 -18 8 -1 4 -29 20 -61 36 -33 16 -64 34 -70
40 -16 15 -64 46 -107 70 -19 10 -79 52 -133 92 -54 41 -102 74 -107 74 -10 0
-31 16 -80 60 -15 14 -42 36 -60 50 -18 14 -47 38 -64 54 -17 16 -47 41 -66
55 -47 35 -488 477 -524 525 -15 20 -42 52 -60 69 -17 18 -43 49 -58 69 -15
20 -33 42 -41 50 -17 17 -115 152 -152 208 -17 25 -47 67 -67 95 -21 27 -38
56 -38 63 0 6 -4 12 -9 12 -5 0 -14 14 -21 30 -7 17 -16 30 -21 30 -5 0 -9 7
-9 14 0 8 -13 35 -30 59 -16 25 -30 47 -30 51 0 3 -11 22 -25 42 -14 20 -69
125 -122 233 -54 108 -100 198 -103 201 -3 3 -11 23 -18 45 -8 22 -22 59 -33
82 -10 24 -19 49 -19 56 0 7 -4 17 -9 22 -10 10 -64 166 -59 169 3 2 38 10
173 41 39 8 84 20 100 26 52 19 278 132 321 161 23 15 46 28 50 28 5 0 23 12
39 28 17 15 48 40 69 56 59 44 116 106 122 133 4 13 -4 61 -16 106 -12 45 -30
120 -41 167 -71 303 -93 399 -114 496 -13 60 -29 132 -35 159 -6 28 -24 113
-41 190 -45 208 -85 390 -129 575 -21 91 -43 188 -48 215 -6 28 -20 88 -32
135 -19 78 -43 184 -99 436 -32 150 -49 205 -65 223 -16 17 -61 29 -276 71
-82 15 -143 20 -270 19 -91 -1 -181 -5 -200 -9z m450 -60 c58 -12 140 -28 183
-37 l77 -16 11 -41 c22 -86 29 -113 44 -186 34 -157 75 -338 95 -420 12 -47
26 -107 32 -135 5 -27 27 -124 48 -215 44 -185 84 -367 129 -575 17 -77 35
-162 41 -190 6 -27 22 -99 35 -159 13 -60 40 -177 59 -260 19 -83 44 -189 55
-236 11 -47 29 -118 40 -159 23 -85 21 -90 -42 -147 -74 -66 -228 -174 -248
-174 -5 0 -26 -11 -47 -25 -63 -41 -223 -108 -307 -128 -44 -10 -103 -24 -131
-30 -61 -14 -84 -31 -84 -63 0 -25 46 -171 60 -189 4 -5 13 -31 21 -57 7 -27
17 -48 21 -48 4 0 8 -7 8 -15 0 -9 9 -35 20 -57 11 -23 20 -47 20 -52 0 -6 9
-22 20 -36 11 -14 20 -33 20 -42 0 -10 3 -18 8 -18 8 0 32 -48 32 -64 0 -6 9
-22 20 -36 11 -14 20 -32 20 -42 0 -9 3 -18 8 -20 4 -1 27 -42 52 -90 24 -49
48 -88 52 -88 5 0 8 -5 8 -11 0 -6 12 -30 28 -53 15 -22 38 -62 52 -88 14 -27
28 -48 32 -48 5 0 8 -6 8 -12 0 -7 17 -36 38 -63 20 -28 50 -70 67 -95 141
-214 272 -366 585 -679 141 -141 286 -281 324 -311 37 -30 100 -83 139 -117
40 -35 78 -63 85 -63 11 0 86 -52 102 -71 8 -10 157 -109 163 -109 9 0 131
-84 135 -92 2 -5 9 -8 16 -8 15 0 86 -36 143 -73 24 -15 47 -27 53 -27 5 0 10
-4 10 -10 0 -5 6 -10 13 -10 11 -1 96 -41 142 -68 27 -16 173 -82 270 -122 44
-18 94 -39 110 -45 17 -7 45 -16 63 -20 18 -4 45 -13 60 -21 53 -27 112 -7
112 38 0 33 50 221 70 265 11 24 20 47 20 52 0 13 44 95 53 99 4 2 7 9 7 16 0
29 91 179 160 265 100 123 100 124 150 117 42 -5 193 -38 395 -86 124 -30 311
-71 494 -109 85 -18 173 -39 195 -46 23 -8 97 -25 166 -39 69 -14 154 -34 190
-45 36 -10 112 -28 170 -40 58 -12 143 -31 190 -42 106 -25 149 -35 275 -61
55 -11 127 -28 160 -38 64 -18 111 -29 260 -56 50 -9 97 -20 106 -25 21 -11
68 -154 82 -249 14 -97 14 -383 0 -480 -18 -124 -87 -370 -105 -378 -5 -2 -8
-10 -8 -17 0 -18 -76 -168 -112 -221 -15 -23 -28 -45 -28 -48 0 -4 -12 -19
-26 -34 -14 -15 -32 -39 -41 -53 -19 -31 -250 -259 -313 -309 -25 -19 -65 -46
-90 -59 -25 -13 -47 -27 -50 -30 -10 -12 -50 -31 -65 -31 -8 0 -15 -4 -15 -8
0 -12 -166 -87 -236 -107 -64 -18 -207 -48 -319 -66 -117 -18 -758 3 -905 30
-30 6 -93 15 -140 20 -47 6 -116 17 -155 26 -38 8 -83 15 -98 15 -16 0 -82 13
-147 30 -65 16 -133 30 -150 30 -38 0 -142 25 -185 45 -16 7 -66 21 -109 30
-75 15 -166 41 -301 87 -33 11 -85 27 -115 36 -30 9 -57 19 -60 22 -3 3 -25
12 -50 20 -25 7 -49 17 -55 21 -5 3 -39 16 -75 29 -36 12 -84 30 -107 41 -24
10 -47 19 -53 19 -10 0 -51 21 -60 30 -3 3 -25 12 -50 20 -25 8 -61 23 -80 34
-42 23 -71 38 -125 62 -22 10 -51 25 -65 34 -14 9 -41 23 -60 30 -19 8 -51 23
-70 35 -19 12 -78 44 -130 71 -52 27 -134 75 -182 107 -48 31 -93 57 -99 57
-6 0 -21 8 -34 17 -12 10 -31 24 -41 30 -11 7 -34 23 -52 35 -18 13 -72 50
-120 83 -48 33 -114 80 -148 105 -34 25 -81 59 -105 75 -24 17 -64 48 -89 71
-25 23 -69 58 -99 78 -81 55 -168 136 -425 393 -276 276 -373 380 -458 491
-107 141 -119 156 -141 182 -12 14 -47 59 -79 100 -31 42 -63 82 -72 89 -9 7
-16 19 -16 25 0 6 -20 38 -45 71 -25 33 -45 63 -45 67 0 3 -6 13 -12 20 -15
15 -87 122 -104 154 -32 59 -98 165 -105 170 -5 3 -9 14 -9 25 0 10 -4 19 -10
19 -5 0 -10 5 -10 11 0 6 -13 31 -30 56 -16 24 -30 51 -30 59 0 7 -4 14 -10
14 -5 0 -10 8 -10 18 0 9 -9 28 -20 42 -11 14 -20 33 -20 43 0 9 -3 17 -7 17
-9 0 -33 48 -33 64 0 6 -9 22 -20 36 -11 14 -20 33 -20 42 0 9 -3 18 -7 20
-10 4 -53 86 -53 99 0 5 -17 46 -39 92 -21 45 -41 93 -45 107 -4 14 -18 51
-31 83 -14 31 -36 83 -49 115 -13 31 -33 80 -45 107 -11 28 -28 79 -37 115 -9
36 -19 70 -24 75 -4 6 -11 26 -15 45 -4 19 -18 67 -31 105 -12 39 -29 99 -38
135 -8 36 -23 101 -35 145 -66 263 -101 419 -101 454 0 22 -4 61 -10 88 -61
305 -75 449 -86 928 -6 233 -4 266 27 440 17 96 96 325 111 325 5 0 8 6 8 13
0 18 24 67 33 67 4 0 7 9 7 19 0 10 27 60 60 109 33 50 60 95 60 99 0 5 71 78
158 163 150 147 277 250 307 250 7 0 15 3 17 8 4 9 131 72 146 72 7 0 12 3 12
8 0 11 132 62 163 62 7 0 24 7 39 14 16 8 70 22 120 31 51 9 109 20 128 25 74
17 319 11 430 -10z"/>
<path d="M6880 9700 c0 -11 -18 -92 -40 -180 -22 -88 -40 -168 -40 -178 0 -31
29 -48 160 -92 69 -23 129 -46 135 -51 5 -5 15 -9 22 -9 8 0 33 -9 55 -20 23
-11 46 -20 51 -20 15 0 351 -168 392 -196 20 -13 42 -24 50 -24 8 0 15 -4 15
-9 0 -5 14 -14 30 -21 17 -7 30 -15 30 -19 0 -3 12 -12 28 -18 15 -7 39 -23
54 -35 43 -37 61 -51 113 -88 28 -19 60 -44 72 -57 13 -12 39 -34 60 -50 67
-50 459 -448 506 -514 25 -35 81 -116 124 -179 43 -63 81 -116 85 -118 5 -2 8
-10 8 -17 0 -8 11 -31 25 -51 30 -44 195 -376 195 -392 0 -6 9 -27 20 -47 21
-38 110 -296 110 -320 0 -26 38 -55 73 -55 19 0 63 9 98 19 35 11 95 29 133
40 38 12 85 21 103 21 31 0 34 2 28 23 -4 12 -13 43 -21 70 -39 132 -46 155
-63 192 -9 22 -24 60 -31 85 -8 25 -17 47 -20 50 -3 3 -12 25 -20 50 -8 25
-31 80 -52 123 -21 43 -38 84 -38 92 0 8 -4 15 -10 15 -5 0 -10 8 -11 18 0 9
-14 40 -29 67 -16 28 -43 77 -61 109 -17 33 -37 65 -44 73 -8 7 -17 22 -20 33
-3 11 -11 20 -16 20 -5 0 -9 9 -9 19 0 11 -5 23 -10 26 -6 4 -22 29 -35 56
-19 36 -31 49 -48 50 -12 0 -17 3 -11 5 18 8 -12 60 -66 115 -26 27 -57 68
-68 92 -12 24 -33 55 -49 68 -15 13 -44 44 -63 69 -45 58 -336 348 -386 386
-22 16 -46 36 -54 45 -8 8 -42 35 -75 60 -33 24 -62 46 -65 49 -17 17 -90 70
-97 70 -4 0 -35 20 -68 45 -33 25 -63 45 -67 45 -3 0 -13 6 -20 13 -30 27 -78
57 -93 57 -8 0 -15 5 -15 10 0 6 -9 10 -20 10 -11 0 -20 5 -20 10 0 6 -5 10
-10 10 -6 0 -29 12 -53 27 -59 39 -87 53 -102 53 -7 0 -15 3 -17 8 -4 9 -83
47 -133 64 -22 7 -42 15 -45 18 -11 11 -48 27 -92 41 -27 7 -48 17 -48 21 0 4
-7 8 -15 8 -8 0 -34 9 -58 19 -49 23 -132 51 -150 51 -7 0 -23 6 -37 13 -14 8
-48 19 -75 26 -28 6 -58 14 -67 17 -13 4 -18 0 -18 -16z m120 -70 c3 -4 21
-11 40 -15 50 -10 118 -33 167 -56 24 -10 46 -19 51 -19 5 0 27 -9 50 -20 22
-11 47 -20 54 -20 7 0 24 -9 38 -20 14 -11 31 -20 38 -20 12 0 63 -21 152 -63
59 -28 144 -79 148 -89 2 -4 8 -8 13 -8 30 0 151 -72 269 -159 25 -18 52 -36
60 -39 17 -7 162 -116 233 -175 46 -38 385 -374 476 -472 21 -22 46 -57 56
-79 10 -21 43 -65 72 -96 32 -35 53 -67 53 -81 0 -25 26 -59 45 -59 7 0 20
-18 30 -40 10 -22 22 -40 27 -40 4 0 8 -9 8 -20 0 -11 4 -20 9 -20 5 0 13 -9
16 -20 3 -11 12 -26 20 -33 7 -8 27 -40 44 -73 17 -32 40 -72 51 -89 10 -16
19 -38 19 -47 1 -10 4 -18 9 -18 7 0 32 -47 32 -62 0 -4 17 -42 38 -85 21 -43
44 -98 52 -123 8 -25 17 -47 20 -50 3 -3 12 -25 20 -50 7 -25 21 -63 31 -85
25 -60 37 -94 52 -156 l14 -56 -76 -22 c-42 -12 -105 -31 -140 -42 -75 -22
-90 -23 -95 -6 -20 69 -101 313 -106 317 -8 8 -28 52 -41 95 -8 22 -21 52 -31
67 -10 14 -18 33 -18 42 0 9 -3 16 -7 16 -9 0 -33 48 -33 64 0 6 -9 22 -20 36
-11 14 -20 33 -20 43 0 9 -4 17 -10 17 -5 0 -10 5 -10 11 0 6 -12 30 -28 53
-15 22 -38 62 -52 89 -14 26 -28 47 -31 47 -4 0 -12 14 -19 30 -7 17 -16 30
-21 30 -4 0 -11 9 -14 20 -3 11 -12 26 -18 33 -20 21 -70 89 -110 148 -21 30
-141 156 -266 280 -244 240 -309 299 -390 354 -29 19 -70 49 -91 68 -22 18
-52 40 -67 48 -15 7 -30 17 -33 20 -3 3 -25 17 -50 30 -25 14 -64 37 -87 52
-24 15 -47 27 -53 27 -5 0 -10 5 -10 10 0 6 -6 10 -14 10 -16 0 -140 62 -144
73 -2 4 -10 7 -18 7 -13 0 -52 18 -64 30 -3 3 -23 11 -45 18 -22 8 -59 22 -82
33 -24 10 -49 19 -56 19 -7 0 -17 4 -22 9 -6 5 -66 28 -135 51 -69 23 -126 43
-127 44 -2 2 64 271 72 294 4 10 14 12 37 7 18 -4 35 -11 38 -15z"/>
<path d="M6648 8743 c-11 -3 -22 -21 -28 -46 -6 -23 -15 -53 -20 -67 -15 -40
-60 -227 -60 -248 0 -30 28 -48 135 -83 55 -19 102 -37 103 -41 2 -5 11 -8 21
-8 20 0 306 -143 331 -165 9 -8 24 -15 32 -15 9 0 18 -3 20 -7 2 -5 39 -32 83
-62 44 -30 85 -59 91 -65 6 -6 26 -22 44 -36 57 -42 343 -332 380 -385 41 -57
124 -172 145 -199 8 -10 27 -44 42 -75 15 -31 31 -57 36 -59 4 -2 7 -9 7 -15
0 -7 22 -57 50 -112 27 -55 50 -107 50 -116 0 -8 4 -19 9 -25 5 -5 23 -52 41
-104 48 -141 52 -144 175 -111 121 34 189 52 226 62 44 11 52 32 34 91 -8 24
-21 68 -30 98 -9 30 -29 83 -46 117 -16 34 -29 66 -29 72 0 10 -46 113 -81
181 -59 114 -82 155 -90 158 -5 2 -9 10 -9 17 0 8 -21 43 -47 79 -27 35 -70
96 -98 135 -27 39 -59 83 -70 97 -55 74 -402 410 -495 480 -139 104 -168 124
-185 124 -7 0 -15 3 -17 8 -6 13 -67 52 -82 52 -8 0 -16 3 -18 8 -9 21 -150
94 -278 143 -47 18 -89 35 -95 39 -5 3 -30 13 -55 20 -25 8 -47 17 -50 20 -5
6 -108 39 -140 45 -8 1 -23 0 -32 -2z m89 -69 c26 -8 67 -24 90 -35 24 -10 47
-19 51 -19 5 0 22 -6 38 -14 52 -25 98 -44 139 -58 47 -15 143 -64 202 -101
24 -15 45 -27 48 -27 8 0 69 -44 73 -52 2 -5 12 -8 23 -8 10 0 19 -4 19 -8 0
-5 10 -14 23 -19 103 -47 551 -468 647 -608 84 -122 118 -170 146 -204 11 -14
37 -60 58 -101 22 -41 44 -82 50 -90 7 -8 17 -26 22 -40 6 -14 25 -55 42 -93
18 -37 32 -72 32 -77 0 -5 11 -34 25 -64 37 -81 46 -104 65 -178 l18 -66 -77
-20 c-42 -11 -110 -30 -151 -41 -41 -11 -75 -19 -76 -18 -1 1 -16 45 -34 97
-18 52 -36 99 -41 104 -5 6 -9 17 -9 25 0 9 -14 43 -30 76 -17 33 -30 65 -30
71 0 7 -3 14 -7 16 -9 4 -73 127 -73 140 0 5 -5 14 -11 21 -9 11 -50 69 -173
247 -49 70 -344 366 -439 440 -32 25 -68 53 -79 63 -12 9 -25 17 -29 17 -4 0
-14 6 -21 14 -8 7 -34 24 -58 37 -25 14 -64 37 -87 52 -24 15 -47 27 -53 27
-5 0 -10 5 -10 10 0 6 -5 10 -12 10 -12 0 -139 60 -148 70 -3 3 -25 12 -50 20
-25 7 -49 17 -55 21 -5 4 -53 21 -105 39 -52 18 -96 33 -97 34 -2 1 40 166 68
264 6 23 15 42 20 42 5 0 30 -7 56 -16z"/>
<path d="M6360 7760 c0 -24 -44 -202 -66 -268 -19 -58 -18 -105 4 -124 9 -9
49 -26 87 -39 39 -13 72 -26 75 -29 3 -3 40 -23 83 -44 145 -71 412 -295 457
-382 8 -16 29 -47 46 -69 17 -22 48 -76 69 -120 22 -44 42 -82 45 -85 8 -7 60
-168 60 -186 0 -18 -7 -19 100 16 50 17 104 30 119 30 29 0 146 34 171 50 29
18 9 111 -51 237 -16 34 -29 66 -29 71 0 12 -17 44 -53 99 -15 24 -27 47 -27
53 0 5 -3 10 -8 10 -4 0 -18 21 -32 48 -13 26 -33 59 -45 73 -11 14 -31 41
-45 59 -41 55 -244 255 -305 300 -122 90 -242 166 -285 180 -25 8 -59 24 -76
36 -18 11 -69 33 -115 48 -46 15 -88 32 -94 36 -5 5 -27 11 -47 15 -35 7 -38
5 -38 -15z m154 -84 c77 -26 136 -52 146 -65 3 -4 25 -13 50 -21 25 -8 55 -21
66 -29 28 -21 49 -35 109 -74 89 -57 128 -89 248 -207 126 -122 186 -195 227
-272 14 -27 28 -48 32 -48 5 0 8 -5 8 -10 0 -6 12 -29 27 -53 35 -54 53 -87
53 -98 0 -5 13 -38 30 -73 41 -91 64 -166 54 -175 -15 -13 -114 -41 -144 -41
-15 0 -56 -9 -90 -20 -35 -11 -64 -19 -65 -18 -1 2 -13 32 -25 68 -12 36 -26
69 -31 75 -5 5 -9 16 -9 25 0 8 -9 26 -20 40 -11 14 -20 33 -20 43 0 9 -4 17
-10 17 -5 0 -10 6 -10 13 0 6 -17 35 -38 62 -20 28 -44 63 -52 80 -27 54 -173
196 -295 288 -66 49 -128 92 -137 95 -10 2 -18 8 -18 13 0 5 -6 9 -13 9 -7 0
-44 16 -82 35 -38 19 -93 42 -122 51 -29 9 -53 23 -53 30 0 7 6 33 14 56 8 24
22 72 31 108 35 140 36 142 48 132 7 -6 47 -22 91 -36z"/>
<path d="M6000 6724 c-85 -29 -108 -44 -174 -110 -68 -68 -83 -93 -111 -181
-21 -65 -19 -303 3 -311 6 -2 12 -9 12 -16 0 -29 35 -80 100 -143 99 -99 153
-118 330 -118 129 0 138 1 193 29 66 33 197 158 197 187 0 11 3 19 8 19 38 0
57 257 26 357 -9 32 -24 71 -31 86 -22 44 -142 156 -198 185 -45 24 -62 27
-180 29 -98 2 -141 -1 -175 -13z m335 -66 c28 -14 77 -55 111 -89 52 -54 64
-75 84 -137 19 -63 21 -89 17 -175 -4 -94 -20 -157 -39 -157 -5 0 -8 -8 -8
-17 0 -23 -119 -143 -142 -143 -10 0 -18 -3 -18 -7 0 -38 -219 -56 -318 -27
-34 10 -62 22 -62 26 0 4 -8 8 -18 8 -22 0 -142 121 -142 144 0 9 -3 16 -7 16
-37 0 -57 223 -29 313 25 78 36 97 91 155 53 57 79 74 160 104 40 15 72 18
160 15 95 -3 117 -6 160 -29z"/>
</g>
</svg>
