<?xml version="1.0" encoding="utf-8"?>
<!-- Generator: Adobe Illustrator 25.2.0, SVG Export Plug-In . SVG Version: 6.00 Build 0)  -->
<svg version="1.1" id="Layer_1" xmlns="http://www.w3.org/2000/svg" xmlns:xlink="http://www.w3.org/1999/xlink" x="0px" y="0px"
	 viewBox="0 0 250 250" style="enable-background:new 0 0 250 250;" xml:space="preserve">
<style type="text/css">
	.st0{fill:none;stroke:#EC008C;stroke-miterlimit:10;}
</style>
<g>
	<polygon class="st0" points="33.25,50.48 27.97,65.4 27.97,76.85 31.49,91.99 35.6,104.03 41.77,116.37 47.8,126.95 54.41,136.94 
		61.61,146.34 68.95,155.31 76.74,163.53 84.97,172.35 93.49,180.72 102.89,188.51 112.88,196 124.93,204.67 136.97,211.43 
		150.05,217.15 166.06,222.15 182.22,223.54 193.09,219.95 202.49,213.63 210.13,206.28 214.69,199.23 218.51,190.71 222.03,179.99 
		220.71,174.26 216.01,168.82 205.73,162.65 192.65,157.21 178.99,153.54 167.38,151.63 158.86,151.49 152.1,152.66 146.82,155.31 
		144.61,158.83 143.53,163.68 141.53,170.44 139.47,170.29 135.65,167.94 126.39,157.8 117.29,148.4 108.32,138.85 100.1,130.33 
		91.28,121.52 83.2,113.14 81.44,110.35 80.26,105.94 82.03,104.77 83.5,105.21 85.7,104.62 91.14,101.54 97.75,98.3 101.27,95.66 
		103.62,90.96 103.48,81.41 100.39,71.12 96.28,61.28 91.72,52.91 85.41,43.21 78.94,35.34 72.92,29.55 66.45,26.46 61.31,26.46 
		53.53,31.16 47.21,35.34 41.04,41.01 	"/>
	<polygon class="st0" points="60.58,66.08 71.27,51.93 92.36,68.97 	"/>
	<polyline class="st0" points="35.6,104.03 47.3,81.1 27.97,65.4 43.54,51.93 60.58,66.08 61.31,26.46 71.27,51.93 78.94,35.34 
		92.36,68.97 100.39,71.12 101.27,95.66 86.87,86.3 82.03,104.77 	"/>
	<line class="st0" x1="43.54" y1="51.93" x2="47.21" y2="35.34"/>
	<polygon class="st0" points="47.3,81.1 60.58,66.08 86.87,86.3 	"/>
	<polygon class="st0" points="63.18,96.7 47.3,81.1 55.24,113.16 	"/>
	<polyline class="st0" points="43.54,119.48 55.24,113.16 76.47,125 80.26,105.94 63.18,96.7 	"/>
	<polyline class="st0" points="94.77,125 76.47,125 99,146.38 72.14,139.45 76.47,125 54.41,136.94 	"/>
	<polyline class="st0" points="141.53,170.44 118.93,179.02 129,160.65 84.97,172.35 99,146.38 76.74,163.53 72.14,139.45 
		61.61,146.34 	"/>
	<polyline class="st0" points="100.1,130.33 99,146.38 129,160.65 	"/>
	<polyline class="st0" points="124.93,204.67 123.87,182.15 150.76,194.91 139.47,170.29 109.25,193.28 107,166.49 118.93,179.02 	
		"/>
	<polyline class="st0" points="205.59,179.89 183.63,196.93 201.23,192.52 219.41,187.96 205.59,179.89 216.01,168.82 
		177.28,176.13 198.35,160.65 	"/>
	<polyline class="st0" points="198.35,216.42 201.23,192.52 179.88,210.22 183.63,196.93 150.76,194.91 165.72,166.49 
		177.28,176.13 178.99,153.54 	"/>
	<polyline class="st0" points="144.61,158.83 165.72,166.49 158.86,151.49 177.28,164.58 	"/>
	<polygon class="st0" points="177.28,176.13 183.63,196.93 150.05,217.15 150.76,194.91 	"/>
	<line class="st0" x1="176" y1="223" x2="179.88" y2="210.22"/>
</g>
</svg>
