<?xml version="1.0" encoding="UTF-8" standalone="no"?>
<!DOCTYPE svg PUBLIC "-//W3C//DTD SVG 1.1//EN" "http://www.w3.org/Graphics/SVG/1.1/DTD/svg11.dtd">
<svg version="1.1" xmlns="http://www.w3.org/2000/svg" xmlns:xlink="http://www.w3.org/1999/xlink" preserveAspectRatio="xMidYMid meet" viewBox="0 0 640 640" width="640" height="640"><defs><path d="M434.94 145.86L446.44 155.06L553.33 155.06L571.72 170L576 183.79L576 467.7L562.53 488.39L545.29 495.29L88.97 495.29L70.57 482.64L64 467.7L64 181.49L70.57 164.25L88.97 155.06L197.01 155.06L221.15 121.72L233.79 114.83L408.51 114.83L417.7 121.72L434.94 145.86ZM216.55 163.1L201.61 176.9L97.01 176.9L85.52 180.34L85.52 467.7L97.01 475.75L541.84 473.45L554.48 467.7L554.48 184.94L546.44 176.9L437.24 176.9L424.6 167.7L405.06 136.67L237.24 136.67L216.55 163.1ZM411.95 211.38L436.09 245.86L453.33 291.84L449.89 337.82L433.79 379.2L403.91 413.68L354.48 438.97L291.26 438.97L254.48 426.32L210.8 388.39L192.41 349.31L184.37 305.06L188.97 274.6L205.06 240.11L230.34 206.78L272.87 181.49L328.05 175.75L371.72 183.79L411.95 211.38ZM241.84 242.41L228.05 258.51L223.45 281.49L218.85 313.68L228.05 352.76L247.59 380.34L274.02 401.03L316.55 412.53L360.23 404.48L390.11 384.94L414.25 349.31L423.45 307.36L410.8 268.85L390.11 230.92L356.78 211.38L310.8 206.78L270.57 215.98L241.84 242.41ZM383.22 275.75L390.11 309.66L383.22 343.56L362.53 367.7L333.79 378.05L300.46 378.05L272.87 360.8L254.48 338.97L248.74 309.66L254.48 286.09L261.38 268.85L272.87 252.76L303.91 238.97L333.79 238.97L362.53 252.76L383.22 275.75ZM172.87 237.82L161.38 248.16L133.79 245.86L124.6 229.77L130.34 211.38L144.14 206.78L165.98 206.78L176.32 220.57L172.87 237.82Z" id="g3Sse4Nr5l"></path></defs><g><g><g><g><use xlink:href="#g3Sse4Nr5l" opacity="1" fill-opacity="0" stroke="#000000" stroke-width="1" stroke-opacity="1"></use></g></g></g></g></svg>