<?xml version="1.0" encoding="UTF-8" standalone="no"?>
<!DOCTYPE svg PUBLIC "-//W3C//DTD SVG 1.1//EN" "http://www.w3.org/Graphics/SVG/1.1/DTD/svg11.dtd">
<svg version="1.1" xmlns="http://www.w3.org/2000/svg" xmlns:xlink="http://www.w3.org/1999/xlink" preserveAspectRatio="xMidYMid meet" viewBox="0 0 640 640" width="640" height="640"><defs><path d="M295.59 312.95L275.58 320.64L295.59 362.22L321.77 393.79L352.57 419.96L391.07 437.67L396.45 419.96L410.31 403.8L508.86 426.89L514.25 450.76L503.47 484.64L473.45 504.66L432.64 508.51L377.21 497.73L326.39 475.4L280.2 440.75L249.4 403.8L228.61 367.61L210.9 324.49L204.74 281.38L204.74 241.34L215.52 222.86L231.69 205.93L259.41 197.46L284.82 202.08L307.91 302.94L307.91 302.94L295.59 312.95ZM220.14 272.14L224.76 307.56L235.54 352.98L266.34 402.26L298.67 435.36L336.4 460L378.75 480.79L434.18 492.34L474.99 484.64L496.54 453.84L486.54 437.67L431.1 424.58L415.7 423.04L406.46 445.37L395.68 453.84L354.88 435.36L309.45 402.26L280.2 364.53L263.26 322.18L263.26 306.02L292.51 299.09L280.2 246.73L272.5 218.24L253.25 210.55L235.54 221.32L220.14 244.42L220.14 244.42L220.14 272.14ZM361.04 358.37L350.26 349.13L350.26 329.88L367.2 326.03L378.75 334.5L378.75 351.44L378.75 351.44L361.04 358.37ZM415.7 309.1L421.86 331.42L405.69 336.81L405.69 323.72L395.68 310.64L387.22 301.4L370.28 296.01L373.36 286.77L376.44 281.38L395.68 289.08L405.69 296.01L405.69 296.01L415.7 309.1ZM464.21 300.63L469.6 319.87L451.12 324.49L448.04 309.1L433.41 287.54L409.54 268.29L378.75 258.28L384.14 241.34L396.07 241.34L421.86 254.43L448.04 274.45L448.04 274.45L464.21 300.63ZM489.62 229.79L508.09 262.13L514.25 306.02L491.93 312.18L487.31 286.77L481.92 268.29L461.13 245.96L432.64 225.17L392.6 214.39L398.76 197.46L402.61 184.37L430.33 193.61L461.13 208.24L461.13 208.24L489.62 229.79Z" id="beGlMNvRu"></path></defs><g><g><g><g><use xlink:href="#beGlMNvRu" opacity="1" fill-opacity="0" stroke="#000000" stroke-width="2" stroke-opacity="1"></use></g></g></g></g></svg>