<?xml version="1.0" encoding="UTF-8" standalone="no"?>
<!DOCTYPE svg PUBLIC "-//W3C//DTD SVG 1.1//EN" "http://www.w3.org/Graphics/SVG/1.1/DTD/svg11.dtd">
<svg version="1.1" xmlns="http://www.w3.org/2000/svg" xmlns:xlink="http://www.w3.org/1999/xlink" preserveAspectRatio="xMidYMid meet" viewBox="0 0 640 640" width="640" height="640"><defs><path d="M245.05 218.58L248.51 241.44L255.14 253.58L251.53 261.48L252.07 265.05L235.41 280.84L214.36 288.73L223.82 311.02L286.55 393.89L293.29 399.23L325.73 421.15L359.93 435.18L366.07 408L381.86 393.09L513.4 422.9L515.96 440.44L513.4 472.01L494.11 500.95L463.41 521.68L419.57 524.63L343.27 510.6L281.89 484.29L220.5 440.44L167.88 375.55L134.56 301.01L124.04 251.02L124.04 187.88L134.56 165.08L159.11 140.53L192.44 130.85L226.64 135.27L245.05 218.58ZM370.61 408.69L368.84 422.86L368.84 435.25L369.73 448.53L374.16 459.16L384.78 468.01L394.52 475.1L406.92 481.29L419.31 484.84L455.62 484.84L468.01 482.18L478.64 478.64L489.26 473.33L498.12 466.24L506.09 457.39L511.4 447.65L513.17 436.14L508.74 425.51L389.21 395.41L377.7 397.18L370.61 408.69ZM205.04 331.66L205.04 344.05L206.81 357.33L212.12 369.73L224.52 390.98L232.49 400.72L239.57 409.57L247.54 418.43L255.51 426.4L265.25 431.71L277.64 436.14L289.15 438.79L301.55 441.45L313.06 444.11L324.57 444.11L286.55 393.89L267.85 379.06L245.05 349.24L226.64 317.67L223.82 311.02L205.92 287.38L205.92 317.49L205.04 331.66ZM346.03 311.35L342.72 325.54L333.26 333.58L321.9 333.58L310.08 328.74L303.45 318.92L303.45 308.98L307.71 298.57L314.81 292.9L334.68 292.9L341.77 298.57L346.03 311.35ZM378.65 267.4L391.42 287.27L395.21 300.99L375.81 305.72L371.55 290.58L361.62 276.86L348.85 267.4L332.29 259.35L335.6 241.85L358.31 250.84L378.65 267.4ZM389.5 214.64L415.26 235.04L430.28 259.72L442.04 287.63L424.92 291.57L417.41 273.78L410.97 259.72L395.21 241.85L375.55 224.3L344.59 211.42L348.72 195.96L368.03 200.69L389.5 214.64ZM401.31 163.13L428.14 180.3L453.9 207.13L470 230.74L480.73 253.28L489.31 276.89L470 280.11L466.78 267.23L453.9 241.85L442.04 222.16L420.63 201.76L401.31 186.74L380.91 176.01L357.3 167.42L360.52 150.25L380.91 154.54L401.31 163.13ZM162.01 149.14L152.92 157.57L143.78 167.25L138.99 177.71L139.72 191.53L141.14 203.49L145.02 216.79L150.85 228.29L175.52 254.92L185.89 262.21L195.71 267.6L206.83 271.78L218.04 273.46L229.96 273.29L240.71 270.57L250.36 264.04L251.53 261.48L248.51 241.44L195.99 145.43L186.87 138.19L173.61 140.82L162.01 149.14ZM414.89 260.82L419.31 271.45L406.92 234.26L411.35 250.19L414.89 260.82ZM372.39 265.25L362.65 259.93L351.14 259.05L338.74 259.05L372.39 265.25ZM421.08 176.7L399.83 169.62L390.09 164.31L377.7 161.65L363.53 161.65L421.08 176.7Z" id="c1xLCTcU8A"></path></defs><g><g><g><g><use xlink:href="#c1xLCTcU8A" opacity="1" fill-opacity="0" stroke="#000000" stroke-width="2" stroke-opacity="1"></use></g></g></g></g></svg>