<?xml version="1.0" encoding="UTF-8" standalone="no"?>
<!DOCTYPE svg PUBLIC "-//W3C//DTD SVG 1.1//EN" "http://www.w3.org/Graphics/SVG/1.1/DTD/svg11.dtd">
<svg version="1.1" xmlns="http://www.w3.org/2000/svg" xmlns:xlink="http://www.w3.org/1999/xlink" preserveAspectRatio="xMidYMid meet" viewBox="0 0 1200 1200" width="1200" height="1200"><defs><path d="M511.58 458.06L524.06 540.73L494.42 568.8L456.99 582.84L478.83 634.31L511.58 690.46L552.13 743.49L597.37 779.37L655.08 818.36L715.91 843.31L726.82 794.96L754.9 768.45L988.86 821.48L993.42 852.67L988.86 908.82L954.54 960.29L899.95 997.16L821.97 1002.41L686.27 977.45L577.09 930.66L467.91 852.67L374.33 737.25L315.06 604.68L296.34 515.77L296.34 403.47L315.06 362.92L358.73 319.25L418 302.04L478.83 309.89L511.58 458.06ZM691.18 623.06L685.29 648.31L668.46 662.61L648.27 662.61L627.23 653.99L615.45 636.53L615.45 618.86L623.02 600.34L635.64 590.25L670.98 590.25L683.61 600.34L691.18 623.06ZM749.2 544.89L771.92 580.23L778.65 604.63L744.15 613.05L736.57 586.12L718.9 561.72L696.19 544.89L666.74 530.59L672.63 499.45L713.01 515.44L749.2 544.89ZM768.49 451.07L814.31 487.34L841.03 531.24L861.95 580.87L831.49 587.88L818.13 556.25L806.67 531.24L778.65 499.45L743.68 468.25L688.61 445.34L695.95 417.84L730.32 426.25L768.49 451.07ZM789.49 359.44L837.21 389.98L883.03 437.7L911.66 479.7L930.75 519.79L946.02 561.78L911.66 567.51L905.94 544.6L883.03 499.45L861.95 464.43L823.85 428.16L789.49 401.43L753.22 382.34L711.23 367.07L716.95 336.53L753.22 344.17L789.49 359.44Z" id="jBZXp70lg"></path><path d="M802.27 400.46C874.31 400.46 932.73 460.51 932.73 534.59C932.73 537.38 932.65 540.17 932.46 542.91C984.5 554.18 1022.76 591.91 1022.76 636.73C1022.76 636.73 1022.76 636.73 1022.76 636.73C1022.76 690.44 967.83 733.98 900.06 733.98C869.28 733.98 623.05 733.98 592.27 733.98C524.51 733.98 469.56 690.44 469.56 636.73C469.56 636.73 469.56 636.73 469.56 636.73C469.56 589.9 511.32 550.81 566.92 541.57C571.91 490.8 613.58 451.17 664.27 451.17C675.41 451.17 686.09 453.09 696.07 456.61C719.76 422.61 758.49 400.46 802.27 400.46Z" id="b2jqZ0qLfW"></path></defs><g><g><g><g><filter id="shadow13934315" x="287.34" y="293.04" width="716.08" height="719.37" filterUnits="userSpaceOnUse" primitiveUnits="userSpaceOnUse"><feFlood></feFlood><feComposite in2="SourceAlpha" operator="in"></feComposite><feGaussianBlur stdDeviation="1"></feGaussianBlur><feOffset dx="1" dy="1" result="afterOffset"></feOffset><feFlood flood-color="#000000" flood-opacity="0.5"></feFlood><feComposite in2="afterOffset" operator="in"></feComposite><feMorphology operator="dilate" radius="1"></feMorphology><feComposite in2="SourceAlpha" operator="out"></feComposite></filter><path d="M511.58 458.06L524.06 540.73L494.42 568.8L456.99 582.84L478.83 634.31L511.58 690.46L552.13 743.49L597.37 779.37L655.08 818.36L715.91 843.31L726.82 794.96L754.9 768.45L988.86 821.48L993.42 852.67L988.86 908.82L954.54 960.29L899.95 997.16L821.97 1002.41L686.27 977.45L577.09 930.66L467.91 852.67L374.33 737.25L315.06 604.68L296.34 515.77L296.34 403.47L315.06 362.92L358.73 319.25L418 302.04L478.83 309.89L511.58 458.06ZM691.18 623.06L685.29 648.31L668.46 662.61L648.27 662.61L627.23 653.99L615.45 636.53L615.45 618.86L623.02 600.34L635.64 590.25L670.98 590.25L683.61 600.34L691.18 623.06ZM749.2 544.89L771.92 580.23L778.65 604.63L744.15 613.05L736.57 586.12L718.9 561.72L696.19 544.89L666.74 530.59L672.63 499.45L713.01 515.44L749.2 544.89ZM768.49 451.07L814.31 487.34L841.03 531.24L861.95 580.87L831.49 587.88L818.13 556.25L806.67 531.24L778.65 499.45L743.68 468.25L688.61 445.34L695.95 417.84L730.32 426.25L768.49 451.07ZM789.49 359.44L837.21 389.98L883.03 437.7L911.66 479.7L930.75 519.79L946.02 561.78L911.66 567.51L905.94 544.6L883.03 499.45L861.95 464.43L823.85 428.16L789.49 401.43L753.22 382.34L711.23 367.07L716.95 336.53L753.22 344.17L789.49 359.44Z" id="eieI75gQf" fill="white" fill-opacity="1" filter="url(#shadow13934315)"></path></g><g><use xlink:href="#jBZXp70lg" opacity="1" fill-opacity="0" stroke="#000000" stroke-width="2" stroke-opacity="1"></use></g><g><filter id="shadow5117092" x="287.34" y="293.04" width="716.08" height="719.37" filterUnits="userSpaceOnUse" primitiveUnits="userSpaceOnUse"><feFlood></feFlood><feComposite in2="SourceAlpha" operator="out"></feComposite><feGaussianBlur stdDeviation="1"></feGaussianBlur><feOffset dx="1" dy="1" result="afterOffset"></feOffset><feFlood flood-color="#ffffff" flood-opacity="0.8"></feFlood><feComposite in2="afterOffset" operator="in"></feComposite><feMorphology operator="dilate" radius="1"></feMorphology><feComposite in2="SourceAlpha" operator="in"></feComposite></filter><path d="M511.58 458.06L524.06 540.73L494.42 568.8L456.99 582.84L478.83 634.31L511.58 690.46L552.13 743.49L597.37 779.37L655.08 818.36L715.91 843.31L726.82 794.96L754.9 768.45L988.86 821.48L993.42 852.67L988.86 908.82L954.54 960.29L899.95 997.16L821.97 1002.41L686.27 977.45L577.09 930.66L467.91 852.67L374.33 737.25L315.06 604.68L296.34 515.77L296.34 403.47L315.06 362.92L358.73 319.25L418 302.04L478.83 309.89L511.58 458.06ZM691.18 623.06L685.29 648.31L668.46 662.61L648.27 662.61L627.23 653.99L615.45 636.53L615.45 618.86L623.02 600.34L635.64 590.25L670.98 590.25L683.61 600.34L691.18 623.06ZM749.2 544.89L771.92 580.23L778.65 604.63L744.15 613.05L736.57 586.12L718.9 561.72L696.19 544.89L666.74 530.59L672.63 499.45L713.01 515.44L749.2 544.89ZM768.49 451.07L814.31 487.34L841.03 531.24L861.95 580.87L831.49 587.88L818.13 556.25L806.67 531.24L778.65 499.45L743.68 468.25L688.61 445.34L695.95 417.84L730.32 426.25L768.49 451.07ZM789.49 359.44L837.21 389.98L883.03 437.7L911.66 479.7L930.75 519.79L946.02 561.78L911.66 567.51L905.94 544.6L883.03 499.45L861.95 464.43L823.85 428.16L789.49 401.43L753.22 382.34L711.23 367.07L716.95 336.53L753.22 344.17L789.49 359.44Z" id="az85zbZi3" fill="white" fill-opacity="1" filter="url(#shadow5117092)"></path></g></g><g><g><use xlink:href="#b2jqZ0qLfW" opacity="1" fill-opacity="0" stroke="#000000" stroke-width="2" stroke-opacity="1"></use></g></g></g></g></svg>