<?xml version="1.0" encoding="UTF-8" standalone="no"?>
<!DOCTYPE svg PUBLIC "-//W3C//DTD SVG 1.1//EN" "http://www.w3.org/Graphics/SVG/1.1/DTD/svg11.dtd">
<svg version="1.1" xmlns="http://www.w3.org/2000/svg" xmlns:xlink="http://www.w3.org/1999/xlink" preserveAspectRatio="xMidYMid meet" viewBox="0 0 1200 1200" width="1200" height="1200"><defs><path d="M436.12 330.8L437.25 331.93L442.83 332.65L443.31 334.79L440.12 334.79L472.08 366.76L480.07 390.73L481.41 414.7L482.74 445.33L482.74 469.31L481.41 498.61L478.74 522.58L464.09 542.56L441.45 553.21L444.11 578.52L456.1 601.16L469.42 625.13L486.73 642.44L500.05 662.42L513.37 683.73L536.01 702.37L528.58 701.98L501.67 680.64L469.12 638.08L442.83 593.01L425.31 551.71L455.35 540.44L462.16 534L445.45 539.89L418.81 539.89L389.51 531.9L368.2 515.92L350.89 497.27L336.24 477.3L329.58 453.33L334.91 426.69L346.89 400.05L356.22 376.08L369.53 356.1L389.51 340.12L414.81 334.79L440.12 334.79L437.25 331.93L394.02 326.35L346.45 340.16L318.54 368.07L313.6 380.08L305.61 433.35L301.61 458.65L298.95 483.96L297.05 501.06L311.4 569.23L329.27 609.2L342.9 626.46L365.54 649.1L388.18 663.75L410.82 673.07L436.12 683.73L486.73 697.05L510.7 701.04L528.58 701.98L537.97 709.43L584.28 740.72L633.1 760.75L639.89 730.69L639.89 774.29L657.2 795.6L679.84 811.58L702.49 823.57L727.79 831.56L753.09 834.22L777.07 834.22L801.04 830.23L825.01 822.24L844.99 807.59L852.98 784.95L641.38 724.11L641.86 721.94L664.4 700.67L852.16 743.22L855.82 768.26L852.16 813.32L824.62 854.63L780.81 884.22L718.22 888.43L609.32 868.4L521.7 830.85L434.07 768.26L358.97 675.63L329.27 609.2L322.92 601.16L310.93 577.18L305.61 545.22L301.61 555.87L296.28 531.9L296.28 507.93L297.05 501.06L296.38 497.88L296.38 407.75L311.4 375.21L318.54 368.07L322.92 357.43L340.23 338.79L362.87 326.8L386.85 320.14L413.48 322.81L436.12 330.8ZM613.26 583.99L608.53 604.25L595.02 615.73L578.82 615.73L561.94 608.81L552.48 594.79L552.48 580.61L558.56 565.75L568.69 557.65L597.05 557.65L607.18 565.75L613.26 583.99ZM659.82 521.25L678.05 549.61L683.45 569.2L655.77 575.95L649.69 554.34L635.51 534.76L617.28 521.25L593.64 509.77L598.37 484.79L630.78 497.62L659.82 521.25ZM675.31 445.95L712.07 475.06L733.52 510.29L750.31 550.13L725.86 555.75L715.14 530.37L705.95 510.29L683.45 484.79L655.39 459.74L611.2 441.35L617.09 419.28L644.67 426.03L675.31 445.95ZM692.16 372.41L730.46 396.93L767.23 435.23L790.21 468.93L805.53 501.1L817.78 534.81L790.21 539.4L785.61 521.02L767.23 484.79L750.31 456.67L719.73 427.57L692.16 406.12L663.05 390.8L629.35 378.54L633.94 354.03L663.05 360.16L692.16 372.41ZM479.14 517.91L469.12 451.56L445.1 342.89L467.7 528.74L479.14 517.91Z" id="d1ll3LUTF"></path></defs><g><g><g><g><filter id="shadow9167006" x="287.28" y="311.14" width="578.54" height="587.28" filterUnits="userSpaceOnUse" primitiveUnits="userSpaceOnUse"><feFlood></feFlood><feComposite in2="SourceAlpha" operator="in"></feComposite><feGaussianBlur stdDeviation="1"></feGaussianBlur><feOffset dx="1" dy="1" result="afterOffset"></feOffset><feFlood flood-color="#000000" flood-opacity="0.5"></feFlood><feComposite in2="afterOffset" operator="in"></feComposite><feMorphology operator="dilate" radius="1"></feMorphology><feComposite in2="SourceAlpha" operator="out"></feComposite></filter><path d="M436.12 330.8L437.25 331.93L442.83 332.65L443.31 334.79L440.12 334.79L472.08 366.76L480.07 390.73L481.41 414.7L482.74 445.33L482.74 469.31L481.41 498.61L478.74 522.58L464.09 542.56L441.45 553.21L444.11 578.52L456.1 601.16L469.42 625.13L486.73 642.44L500.05 662.42L513.37 683.73L536.01 702.37L528.58 701.98L501.67 680.64L469.12 638.08L442.83 593.01L425.31 551.71L455.35 540.44L462.16 534L445.45 539.89L418.81 539.89L389.51 531.9L368.2 515.92L350.89 497.27L336.24 477.3L329.58 453.33L334.91 426.69L346.89 400.05L356.22 376.08L369.53 356.1L389.51 340.12L414.81 334.79L440.12 334.79L437.25 331.93L394.02 326.35L346.45 340.16L318.54 368.07L313.6 380.08L305.61 433.35L301.61 458.65L298.95 483.96L297.05 501.06L311.4 569.23L329.27 609.2L342.9 626.46L365.54 649.1L388.18 663.75L410.82 673.07L436.12 683.73L486.73 697.05L510.7 701.04L528.58 701.98L537.97 709.43L584.28 740.72L633.1 760.75L639.89 730.69L639.89 774.29L657.2 795.6L679.84 811.58L702.49 823.57L727.79 831.56L753.09 834.22L777.07 834.22L801.04 830.23L825.01 822.24L844.99 807.59L852.98 784.95L641.38 724.11L641.86 721.94L664.4 700.67L852.16 743.22L855.82 768.26L852.16 813.32L824.62 854.63L780.81 884.22L718.22 888.43L609.32 868.4L521.7 830.85L434.07 768.26L358.97 675.63L329.27 609.2L322.92 601.16L310.93 577.18L305.61 545.22L301.61 555.87L296.28 531.9L296.28 507.93L297.05 501.06L296.38 497.88L296.38 407.75L311.4 375.21L318.54 368.07L322.92 357.43L340.23 338.79L362.87 326.8L386.85 320.14L413.48 322.81L436.12 330.8ZM613.26 583.99L608.53 604.25L595.02 615.73L578.82 615.73L561.94 608.81L552.48 594.79L552.48 580.61L558.56 565.75L568.69 557.65L597.05 557.65L607.18 565.75L613.26 583.99ZM659.82 521.25L678.05 549.61L683.45 569.2L655.77 575.95L649.69 554.34L635.51 534.76L617.28 521.25L593.64 509.77L598.37 484.79L630.78 497.62L659.82 521.25ZM675.31 445.95L712.07 475.06L733.52 510.29L750.31 550.13L725.86 555.75L715.14 530.37L705.95 510.29L683.45 484.79L655.39 459.74L611.2 441.35L617.09 419.28L644.67 426.03L675.31 445.95ZM692.16 372.41L730.46 396.93L767.23 435.23L790.21 468.93L805.53 501.1L817.78 534.81L790.21 539.4L785.61 521.02L767.23 484.79L750.31 456.67L719.73 427.57L692.16 406.12L663.05 390.8L629.35 378.54L633.94 354.03L663.05 360.16L692.16 372.41ZM479.14 517.91L469.12 451.56L445.1 342.89L467.7 528.74L479.14 517.91Z" id="cuDmBX0nK" fill="white" fill-opacity="1" filter="url(#shadow9167006)"></path></g><g><use xlink:href="#d1ll3LUTF" opacity="1" fill-opacity="0" stroke="#000000" stroke-width="2" stroke-opacity="1"></use></g><g><filter id="shadow2999138" x="287.28" y="311.14" width="578.54" height="587.28" filterUnits="userSpaceOnUse" primitiveUnits="userSpaceOnUse"><feFlood></feFlood><feComposite in2="SourceAlpha" operator="out"></feComposite><feGaussianBlur stdDeviation="1"></feGaussianBlur><feOffset dx="1" dy="1" result="afterOffset"></feOffset><feFlood flood-color="#ffffff" flood-opacity="0.8"></feFlood><feComposite in2="afterOffset" operator="in"></feComposite><feMorphology operator="dilate" radius="1"></feMorphology><feComposite in2="SourceAlpha" operator="in"></feComposite></filter><path d="M436.12 330.8L437.25 331.93L442.83 332.65L443.31 334.79L440.12 334.79L472.08 366.76L480.07 390.73L481.41 414.7L482.74 445.33L482.74 469.31L481.41 498.61L478.74 522.58L464.09 542.56L441.45 553.21L444.11 578.52L456.1 601.16L469.42 625.13L486.73 642.44L500.05 662.42L513.37 683.73L536.01 702.37L528.58 701.98L501.67 680.64L469.12 638.08L442.83 593.01L425.31 551.71L455.35 540.44L462.16 534L445.45 539.89L418.81 539.89L389.51 531.9L368.2 515.92L350.89 497.27L336.24 477.3L329.58 453.33L334.91 426.69L346.89 400.05L356.22 376.08L369.53 356.1L389.51 340.12L414.81 334.79L440.12 334.79L437.25 331.93L394.02 326.35L346.45 340.16L318.54 368.07L313.6 380.08L305.61 433.35L301.61 458.65L298.95 483.96L297.05 501.06L311.4 569.23L329.27 609.2L342.9 626.46L365.54 649.1L388.18 663.75L410.82 673.07L436.12 683.73L486.73 697.05L510.7 701.04L528.58 701.98L537.97 709.43L584.28 740.72L633.1 760.75L639.89 730.69L639.89 774.29L657.2 795.6L679.84 811.58L702.49 823.57L727.79 831.56L753.09 834.22L777.07 834.22L801.04 830.23L825.01 822.24L844.99 807.59L852.98 784.95L641.38 724.11L641.86 721.94L664.4 700.67L852.16 743.22L855.82 768.26L852.16 813.32L824.62 854.63L780.81 884.22L718.22 888.43L609.32 868.4L521.7 830.85L434.07 768.26L358.97 675.63L329.27 609.2L322.92 601.16L310.93 577.18L305.61 545.22L301.61 555.87L296.28 531.9L296.28 507.93L297.05 501.06L296.38 497.88L296.38 407.75L311.4 375.21L318.54 368.07L322.92 357.43L340.23 338.79L362.87 326.8L386.85 320.14L413.48 322.81L436.12 330.8ZM613.26 583.99L608.53 604.25L595.02 615.73L578.82 615.73L561.94 608.81L552.48 594.79L552.48 580.61L558.56 565.75L568.69 557.65L597.05 557.65L607.18 565.75L613.26 583.99ZM659.82 521.25L678.05 549.61L683.45 569.2L655.77 575.95L649.69 554.34L635.51 534.76L617.28 521.25L593.64 509.77L598.37 484.79L630.78 497.62L659.82 521.25ZM675.31 445.95L712.07 475.06L733.52 510.29L750.31 550.13L725.86 555.75L715.14 530.37L705.95 510.29L683.45 484.79L655.39 459.74L611.2 441.35L617.09 419.28L644.67 426.03L675.31 445.95ZM692.16 372.41L730.46 396.93L767.23 435.23L790.21 468.93L805.53 501.1L817.78 534.81L790.21 539.4L785.61 521.02L767.23 484.79L750.31 456.67L719.73 427.57L692.16 406.12L663.05 390.8L629.35 378.54L633.94 354.03L663.05 360.16L692.16 372.41ZM479.14 517.91L469.12 451.56L445.1 342.89L467.7 528.74L479.14 517.91Z" id="cg31ASgrh" fill="white" fill-opacity="1" filter="url(#shadow2999138)"></path></g></g></g></g></svg>