<?xml version="1.0" encoding="UTF-8" standalone="no"?>
<!DOCTYPE svg PUBLIC "-//W3C//DTD SVG 1.1//EN" "http://www.w3.org/Graphics/SVG/1.1/DTD/svg11.dtd">
<svg version="1.1" xmlns="http://www.w3.org/2000/svg" xmlns:xlink="http://www.w3.org/1999/xlink" preserveAspectRatio="xMidYMid meet" viewBox="0 0 640 640" width="640" height="640"><defs><path d="M229.26 354.46L210.88 338.38L189.05 325.74L164.93 322.3L140.81 323.45L122.43 337.23L113.24 359.05L113.24 388.92L116.69 417.64L123.58 444.05L131.62 464.73L155.74 477.36L182.16 484.26L206.28 486.55L236.15 487.7L264.86 488.85L292.43 488.85L318.85 491.15L342.97 491.15L363.65 488.85L385.47 479.66L403.85 470.47L424.53 458.99L440.61 446.35L458.99 425.68L473.92 408.45L483.11 382.03L484.26 360.2L468.18 342.97L448.65 324.59L426.82 316.55L400.41 315.41L379.73 326.89L367.09 342.97L368.24 313.11L375.14 287.84L379.73 267.16L385.47 233.85L387.77 213.18L382.03 191.35L369.39 169.53L352.16 151.15L333.78 135.07L310.81 128.18L287.84 132.77L274.05 150L259.12 171.82L248.78 189.05L241.89 212.03L238.45 232.7L237.3 260.27L236.15 283.24L232.7 306.22L232.7 326.89L228.11 346.42L226.96 324.59L228.11 302.77L230.41 277.5L235 255.68L239.59 236.15L243.04 215.47L246.49 191.35L256.82 171.82L276.35 182.16L295.88 189.05L314.26 198.24L331.49 187.91L330.34 163.78L330.34 139.66L324.59 159.19L324.59 181.01L342.97 194.8L361.35 207.43L380.88 214.32" id="aPM8WBTu4"></path></defs><g><g><g><g><use xlink:href="#aPM8WBTu4" opacity="1" fill-opacity="0" stroke="#000000" stroke-width="1" stroke-opacity="1"></use></g></g></g></g></svg>