<?xml version="1.0" encoding="UTF-8" standalone="no"?>
<!DOCTYPE svg PUBLIC "-//W3C//DTD SVG 1.1//EN" "http://www.w3.org/Graphics/SVG/1.1/DTD/svg11.dtd">
<svg version="1.1" xmlns="http://www.w3.org/2000/svg" xmlns:xlink="http://www.w3.org/1999/xlink" preserveAspectRatio="xMidYMid meet" viewBox="0 0 640 640" width="640" height="640"><defs><path d="M236.15 444.63L215.47 441.18L195.95 426.25L183.31 407.87L177.57 379.16L172.97 352.74L171.82 329.76L181.01 309.09L201.69 294.16L222.36 299.9L247.64 311.39L268.31 325.17L284.39 340.1L300.47 353.89L298.18 328.61L290.14 304.49L284.39 283.82L279.8 256.25L275.2 225.24L275.2 204.56L275.2 179.29L278.65 157.47L291.28 139.09L306.22 120.71L326.89 102.33L349.86 90.84L372.84 97.74L386.62 113.82L399.26 140.24L410.74 168.95L418.78 201.11L423.38 226.39L426.82 249.36L426.82 275.78L417.64 302.2L407.3 325.17L398.11 344.7L417.64 350.44L441.76 345.84L468.18 348.14L484.26 364.22L487.7 384.9L478.51 403.28L457.84 418.21L439.46 429.7L422.23 442.33L402.7 450.37L382.03 459.56L360.2 467.6L337.23 475.64L314.26 477.94L291.28 477.94L270.61 472.2L249.93 457.26L232.7 446.93L214.32 438.89" id="dWKAg4fYC"></path><path d="M278.65 160.91L300.47 162.06L328.04 168.95L349.86 175.84L370.54 175.84L392.36 174.7L414.19 170.1" id="ffmYq5ha7"></path><path d="M360.2 96.59L355.61 123.01L351.01 142.53L349.86 163.21" id="a3fOc9JCSu"></path></defs><g><g><g><g><use xlink:href="#dWKAg4fYC" opacity="1" fill-opacity="0" stroke="#000000" stroke-width="1" stroke-opacity="1"></use></g></g><g><g><use xlink:href="#ffmYq5ha7" opacity="1" fill-opacity="0" stroke="#000000" stroke-width="1" stroke-opacity="1"></use></g></g><g><g><use xlink:href="#a3fOc9JCSu" opacity="1" fill-opacity="0" stroke="#000000" stroke-width="1" stroke-opacity="1"></use></g></g></g></g></svg>