<?xml version="1.0" encoding="UTF-8" standalone="no"?>
<!DOCTYPE svg PUBLIC "-//W3C//DTD SVG 1.1//EN" "http://www.w3.org/Graphics/SVG/1.1/DTD/svg11.dtd">
<svg version="1.1" xmlns="http://www.w3.org/2000/svg" xmlns:xlink="http://www.w3.org/1999/xlink" preserveAspectRatio="xMidYMid meet" viewBox="0 0 1200 1200" width="1200" height="1200"><defs><path d="M403.11 212.5L404.88 214.28L413.66 215.41L414.41 218.78L409.39 218.78L459.66 269.05L472.23 306.76L474.32 344.46L476.42 392.64L476.42 430.34L474.32 476.42L470.14 514.12L447.09 545.54L411.49 562.3L415.68 602.09L434.53 637.7L455.47 675.41L482.7 702.64L503.65 734.05L524.59 767.57L560.2 796.89L548.52 796.28L506.19 762.71L455.01 695.77L413.66 624.9L386.1 559.93L433.35 542.21L444.05 532.08L417.77 541.35L375.88 541.35L329.8 528.78L296.28 503.65L269.05 474.32L246.01 442.91L235.54 405.2L243.92 363.31L262.77 321.42L277.43 283.72L298.38 252.3L329.8 227.16L369.59 218.78L409.39 218.78L404.88 214.28L336.88 205.5L262.07 227.22L218.18 271.11L210.41 290L197.84 373.78L191.55 413.58L187.36 453.38L184.38 480.27L206.95 587.49L235.05 650.35L256.49 677.5L292.09 713.11L327.7 736.15L363.31 750.81L403.11 767.57L482.7 788.51L520.41 794.8L548.52 796.28L563.28 807.99L636.13 857.2L712.91 888.7L723.58 841.42L723.58 910L750.81 943.51L786.42 968.65L822.03 987.5L861.82 1000.07L901.62 1004.26L939.32 1004.26L977.03 997.97L1014.73 985.41L1046.15 962.36L1058.72 926.76L725.92 831.08L726.69 827.67L762.12 794.21L1057.43 861.14L1063.19 900.52L1057.43 971.39L1014.12 1036.36L945.21 1082.89L846.78 1089.51L675.5 1058.01L537.69 998.95L399.88 900.52L281.76 754.83L235.05 650.35L225.07 637.7L206.22 600L197.84 549.73L191.55 566.49L183.18 528.78L183.18 491.08L184.38 480.27L183.33 475.28L183.33 333.53L206.95 282.34L218.18 271.11L225.07 254.39L252.3 225.07L287.91 206.22L325.61 195.74L367.5 199.93L403.11 212.5ZM681.69 610.7L674.26 642.56L653.02 660.62L627.53 660.62L600.98 649.74L586.11 627.69L586.11 605.39L595.67 582.03L611.6 569.28L656.2 569.28L672.14 582.03L681.69 610.7ZM754.92 512.03L783.6 556.64L792.1 587.44L748.55 598.06L738.99 564.07L716.69 533.27L688.02 512.03L650.84 493.98L658.28 454.68L709.26 474.86L754.92 512.03ZM779.28 393.6L837.11 439.38L870.84 494.8L897.24 557.45L858.79 566.3L841.93 526.37L827.47 494.8L792.1 454.68L747.96 415.29L678.46 386.38L687.72 351.66L731.09 362.28L779.28 393.6ZM805.79 277.95L866.02 316.5L923.85 376.74L959.99 429.75L984.09 480.34L1003.36 533.35L959.99 540.58L952.76 511.67L923.85 454.68L897.24 410.47L849.16 364.69L805.79 330.96L760.01 306.86L707 287.59L714.23 249.04L760.01 258.68L805.79 277.95ZM470.76 506.78L455.01 402.43L417.23 231.52L452.77 523.81L470.76 506.78Z" id="b4qTWYVFxX"></path></defs><g><g><g><g><filter id="shadow11501489" x="174.18" y="186.74" width="899.01" height="912.77" filterUnits="userSpaceOnUse" primitiveUnits="userSpaceOnUse"><feFlood></feFlood><feComposite in2="SourceAlpha" operator="in"></feComposite><feGaussianBlur stdDeviation="1"></feGaussianBlur><feOffset dx="1" dy="1" result="afterOffset"></feOffset><feFlood flood-color="#000000" flood-opacity="0.5"></feFlood><feComposite in2="afterOffset" operator="in"></feComposite><feMorphology operator="dilate" radius="1"></feMorphology><feComposite in2="SourceAlpha" operator="out"></feComposite></filter><path d="M403.11 212.5L404.88 214.28L413.66 215.41L414.41 218.78L409.39 218.78L459.66 269.05L472.23 306.76L474.32 344.46L476.42 392.64L476.42 430.34L474.32 476.42L470.14 514.12L447.09 545.54L411.49 562.3L415.68 602.09L434.53 637.7L455.47 675.41L482.7 702.64L503.65 734.05L524.59 767.57L560.2 796.89L548.52 796.28L506.19 762.71L455.01 695.77L413.66 624.9L386.1 559.93L433.35 542.21L444.05 532.08L417.77 541.35L375.88 541.35L329.8 528.78L296.28 503.65L269.05 474.32L246.01 442.91L235.54 405.2L243.92 363.31L262.77 321.42L277.43 283.72L298.38 252.3L329.8 227.16L369.59 218.78L409.39 218.78L404.88 214.28L336.88 205.5L262.07 227.22L218.18 271.11L210.41 290L197.84 373.78L191.55 413.58L187.36 453.38L184.38 480.27L206.95 587.49L235.05 650.35L256.49 677.5L292.09 713.11L327.7 736.15L363.31 750.81L403.11 767.57L482.7 788.51L520.41 794.8L548.52 796.28L563.28 807.99L636.13 857.2L712.91 888.7L723.58 841.42L723.58 910L750.81 943.51L786.42 968.65L822.03 987.5L861.82 1000.07L901.62 1004.26L939.32 1004.26L977.03 997.97L1014.73 985.41L1046.15 962.36L1058.72 926.76L725.92 831.08L726.69 827.67L762.12 794.21L1057.43 861.14L1063.19 900.52L1057.43 971.39L1014.12 1036.36L945.21 1082.89L846.78 1089.51L675.5 1058.01L537.69 998.95L399.88 900.52L281.76 754.83L235.05 650.35L225.07 637.7L206.22 600L197.84 549.73L191.55 566.49L183.18 528.78L183.18 491.08L184.38 480.27L183.33 475.28L183.33 333.53L206.95 282.34L218.18 271.11L225.07 254.39L252.3 225.07L287.91 206.22L325.61 195.74L367.5 199.93L403.11 212.5ZM681.69 610.7L674.26 642.56L653.02 660.62L627.53 660.62L600.98 649.74L586.11 627.69L586.11 605.39L595.67 582.03L611.6 569.28L656.2 569.28L672.14 582.03L681.69 610.7ZM754.92 512.03L783.6 556.64L792.1 587.44L748.55 598.06L738.99 564.07L716.69 533.27L688.02 512.03L650.84 493.98L658.28 454.68L709.26 474.86L754.92 512.03ZM779.28 393.6L837.11 439.38L870.84 494.8L897.24 557.45L858.79 566.3L841.93 526.37L827.47 494.8L792.1 454.68L747.96 415.29L678.46 386.38L687.72 351.66L731.09 362.28L779.28 393.6ZM805.79 277.95L866.02 316.5L923.85 376.74L959.99 429.75L984.09 480.34L1003.36 533.35L959.99 540.58L952.76 511.67L923.85 454.68L897.24 410.47L849.16 364.69L805.79 330.96L760.01 306.86L707 287.59L714.23 249.04L760.01 258.68L805.79 277.95ZM470.76 506.78L455.01 402.43L417.23 231.52L452.77 523.81L470.76 506.78Z" id="a6aRY1pPv" fill="white" fill-opacity="1" filter="url(#shadow11501489)"></path></g><g><use xlink:href="#b4qTWYVFxX" opacity="1" fill-opacity="0" stroke="#000000" stroke-width="2" stroke-opacity="1"></use></g><g><filter id="shadow16077547" x="174.18" y="186.74" width="899.01" height="912.77" filterUnits="userSpaceOnUse" primitiveUnits="userSpaceOnUse"><feFlood></feFlood><feComposite in2="SourceAlpha" operator="out"></feComposite><feGaussianBlur stdDeviation="1"></feGaussianBlur><feOffset dx="1" dy="1" result="afterOffset"></feOffset><feFlood flood-color="#ffffff" flood-opacity="0.8"></feFlood><feComposite in2="afterOffset" operator="in"></feComposite><feMorphology operator="dilate" radius="1"></feMorphology><feComposite in2="SourceAlpha" operator="in"></feComposite></filter><path d="M403.11 212.5L404.88 214.28L413.66 215.41L414.41 218.78L409.39 218.78L459.66 269.05L472.23 306.76L474.32 344.46L476.42 392.64L476.42 430.34L474.32 476.42L470.14 514.12L447.09 545.54L411.49 562.3L415.68 602.09L434.53 637.7L455.47 675.41L482.7 702.64L503.65 734.05L524.59 767.57L560.2 796.89L548.52 796.28L506.19 762.71L455.01 695.77L413.66 624.9L386.1 559.93L433.35 542.21L444.05 532.08L417.77 541.35L375.88 541.35L329.8 528.78L296.28 503.65L269.05 474.32L246.01 442.91L235.54 405.2L243.92 363.31L262.77 321.42L277.43 283.72L298.38 252.3L329.8 227.16L369.59 218.78L409.39 218.78L404.88 214.28L336.88 205.5L262.07 227.22L218.18 271.11L210.41 290L197.84 373.78L191.55 413.58L187.36 453.38L184.38 480.27L206.95 587.49L235.05 650.35L256.49 677.5L292.09 713.11L327.7 736.15L363.31 750.81L403.11 767.57L482.7 788.51L520.41 794.8L548.52 796.28L563.28 807.99L636.13 857.2L712.91 888.7L723.58 841.42L723.58 910L750.81 943.51L786.42 968.65L822.03 987.5L861.82 1000.07L901.62 1004.26L939.32 1004.26L977.03 997.97L1014.73 985.41L1046.15 962.36L1058.72 926.76L725.92 831.08L726.69 827.67L762.12 794.21L1057.43 861.14L1063.19 900.52L1057.43 971.39L1014.12 1036.36L945.21 1082.89L846.78 1089.51L675.5 1058.01L537.69 998.95L399.88 900.52L281.76 754.83L235.05 650.35L225.07 637.7L206.22 600L197.84 549.73L191.55 566.49L183.18 528.78L183.18 491.08L184.38 480.27L183.33 475.28L183.33 333.53L206.95 282.34L218.18 271.11L225.07 254.39L252.3 225.07L287.91 206.22L325.61 195.74L367.5 199.93L403.11 212.5ZM681.69 610.7L674.26 642.56L653.02 660.62L627.53 660.62L600.98 649.74L586.11 627.69L586.11 605.39L595.67 582.03L611.6 569.28L656.2 569.28L672.14 582.03L681.69 610.7ZM754.92 512.03L783.6 556.64L792.1 587.44L748.55 598.06L738.99 564.07L716.69 533.27L688.02 512.03L650.84 493.98L658.28 454.68L709.26 474.86L754.92 512.03ZM779.28 393.6L837.11 439.38L870.84 494.8L897.24 557.45L858.79 566.3L841.93 526.37L827.47 494.8L792.1 454.68L747.96 415.29L678.46 386.38L687.72 351.66L731.09 362.28L779.28 393.6ZM805.79 277.95L866.02 316.5L923.85 376.74L959.99 429.75L984.09 480.34L1003.36 533.35L959.99 540.58L952.76 511.67L923.85 454.68L897.24 410.47L849.16 364.69L805.79 330.96L760.01 306.86L707 287.59L714.23 249.04L760.01 258.68L805.79 277.95ZM470.76 506.78L455.01 402.43L417.23 231.52L452.77 523.81L470.76 506.78Z" id="b1AEFlVjhF" fill="white" fill-opacity="1" filter="url(#shadow16077547)"></path></g></g></g></g></svg>