<?xml version="1.0" encoding="UTF-8" standalone="no"?>
<!DOCTYPE svg PUBLIC "-//W3C//DTD SVG 1.1//EN" "http://www.w3.org/Graphics/SVG/1.1/DTD/svg11.dtd">
<svg version="1.1" xmlns="http://www.w3.org/2000/svg" xmlns:xlink="http://www.w3.org/1999/xlink" preserveAspectRatio="xMidYMid meet" viewBox="0 0 640 640" width="640" height="640"><defs><path d="M278.56 174.36L287.92 236.37L265.69 257.43L237.61 267.96L253.99 306.57L278.56 348.68L308.98 388.46L342.91 415.37L386.2 444.62L431.83 463.34L440.02 427.07L461.08 407.18L636.58 446.96L640 470.36L636.58 512.48L610.84 551.09L569.89 578.75L511.39 582.68L409.6 563.96L327.7 528.86L245.8 470.36L175.6 383.78L131.14 284.34L117.1 217.65L117.1 133.41L131.14 102.99L163.9 70.23L208.36 57.32L253.99 63.21L278.56 174.36ZM413.28 298.13L408.86 317.06L396.24 327.79L381.09 327.79L365.31 321.33L356.47 308.23L356.47 294.97L362.15 281.09L371.62 273.51L398.13 273.51L407.6 281.09L413.28 298.13ZM456.8 239.49L473.84 266L478.89 284.3L453.01 290.62L447.33 270.42L434.08 252.11L417.03 239.49L394.94 228.76L399.36 205.41L429.66 217.4L456.8 239.49ZM471.27 169.11L505.64 196.31L525.69 229.25L541.38 266.48L518.53 271.74L508.51 248.01L499.91 229.25L478.89 205.41L452.66 182L411.35 164.81L416.86 144.18L442.64 150.49L471.27 169.11ZM487.03 100.37L522.82 123.29L557.19 159.08L578.67 190.59L592.99 220.66L604.45 252.16L578.67 256.46L574.37 239.27L557.19 205.41L541.38 179.13L512.8 151.92L487.03 131.88L459.82 117.56L428.32 106.1L432.61 83.19L459.82 88.92L487.03 100.37Z" id="b1EJ97xlvt"></path></defs><g><g><g><g><use xlink:href="#b1EJ97xlvt" opacity="1" fill-opacity="0" stroke="#000000" stroke-width="2" stroke-opacity="1"></use></g></g></g></g></svg>