<?xml version="1.0" encoding="UTF-8" standalone="no"?>
<!DOCTYPE svg PUBLIC "-//W3C//DTD SVG 1.1//EN" "http://www.w3.org/Graphics/SVG/1.1/DTD/svg11.dtd">
<svg version="1.1" xmlns="http://www.w3.org/2000/svg" xmlns:xlink="http://www.w3.org/1999/xlink" preserveAspectRatio="xMidYMid meet" viewBox="0 0 640 640" width="640" height="640"><defs><path d="M195.95 192.5L200.54 216.62L189.05 236.15L169.53 248.78L142.25 253.33L240.74 258.99L240.74 255.68L245.34 236.15L255.68 217.77L271.76 205.14L291.28 198.24L311.96 207.43L330.34 216.62L336.08 220.83L336.08 229.26L339.53 251.08L346.42 275.2L352.69 291.32L349.86 299.32L336.08 318.85L318.85 330.34L295.88 330.34L276.35 325.74L260.27 313.11L247.64 295.88L240.74 276.35L240.74 266.01L236.15 279.8L225.81 298.18L209.73 313.11L192.5 323.45L169.53 322.3L148.85 316.55L133.92 300.47L127.03 279.8L124.73 253.38L124.73 252.47L120.14 252.23L119.51 252.02L43.18 247.64L58.11 229.26L82.23 235L99.46 245.34L119.51 252.02L124.73 252.32L124.73 252.47L141.96 253.38L142.25 253.33L124.73 252.32L124.73 232.7L128.18 212.03L138.51 191.35L154.59 178.72L176.42 181.01L195.95 192.5ZM391.22 151.15L388.92 174.12L377.43 197.09L361.35 221.22L352.49 233.29L430.27 297.03L418.78 316.55L401.55 329.19L380.88 329.19L363.65 315.41L354.46 295.88L352.69 291.32L356.76 279.8L359.05 256.82L348.72 238.45L352.49 233.29L347.57 229.26L336.08 220.83L336.08 205.14L337.23 184.46L338.38 159.19L342.97 136.22L357.91 122.43L378.58 132.77L391.22 151.15Z" id="ajsBffmxb"></path></defs><g><g><g><g><use xlink:href="#ajsBffmxb" opacity="1" fill-opacity="0" stroke="#000000" stroke-width="1" stroke-opacity="1"></use></g></g></g></g></svg>